<svg width="108" height="44" viewBox="0 0 108 44" fill="none" xmlns="http://www.w3.org/2000/svg">
<path d="M21 6L13 15.9811" stroke="#FFD700" stroke-width="4" stroke-linecap="round"/>
<path d="M21 26L13 16" stroke="#FFD700" stroke-width="4" stroke-linecap="round"/>
<path d="M83 2L77 29" stroke="black" stroke-width="4" stroke-linecap="round"/>
<path d="M87 6L95 15.9811" stroke="#0740AD" stroke-width="4" stroke-linecap="round"/>
<path d="M87 26L95 16" stroke="#0740AD" stroke-width="4" stroke-linecap="round"/>
<path d="M26.056 17.36C26.056 16.544 26.184 15.776 26.44 15.056C26.696 14.336 27.088 13.712 27.616 13.184C28.144 12.64 28.808 12.216 29.608 11.912C30.424 11.592 31.392 11.432 32.512 11.432C33.184 11.432 33.792 11.48 34.336 11.576C34.88 11.672 35.432 11.832 35.992 12.056L35.344 14.432C35.024 14.32 34.664 14.224 34.264 14.144C33.88 14.048 33.384 14 32.776 14C32.072 14 31.48 14.088 31 14.264C30.536 14.424 30.16 14.656 29.872 14.96C29.584 15.248 29.376 15.6 29.248 16.016C29.12 16.432 29.056 16.88 29.056 17.36C29.056 18.4 29.344 19.216 29.92 19.808C30.512 20.4 31.512 20.696 32.92 20.696C33.384 20.696 33.864 20.664 34.36 20.6C34.872 20.536 35.336 20.432 35.752 20.288L36.184 22.712C35.768 22.872 35.264 23 34.672 23.096C34.08 23.208 33.384 23.264 32.584 23.264C31.432 23.264 30.44 23.112 29.608 22.808C28.792 22.504 28.12 22.088 27.592 21.56C27.064 21.032 26.672 20.408 26.416 19.688C26.176 18.968 26.056 18.192 26.056 17.36ZM45.28 17.288C45.28 16.232 45.104 15.424 44.752 14.864C44.416 14.304 43.896 14.024 43.192 14.024C42.872 14.024 42.552 14.072 42.232 14.168C41.928 14.248 41.664 14.352 41.44 14.48V20.6C41.664 20.648 41.896 20.68 42.136 20.696C42.392 20.712 42.608 20.72 42.784 20.72C43.552 20.72 44.16 20.464 44.608 19.952C45.056 19.424 45.28 18.536 45.28 17.288ZM48.28 17.36C48.28 18.256 48.16 19.072 47.92 19.808C47.68 20.528 47.328 21.144 46.864 21.656C46.4 22.168 45.832 22.568 45.16 22.856C44.488 23.128 43.72 23.264 42.856 23.264C42.088 23.264 41.304 23.208 40.504 23.096C39.704 22.984 39.032 22.84 38.488 22.664V6.848L41.44 6.344V11.984C41.856 11.792 42.256 11.664 42.64 11.6C43.024 11.52 43.408 11.48 43.792 11.48C44.528 11.48 45.176 11.624 45.736 11.912C46.296 12.184 46.76 12.584 47.128 13.112C47.512 13.624 47.8 14.24 47.992 14.96C48.184 15.68 48.28 16.48 48.28 17.36ZM51.712 15.392H58.288V18.296H51.712V15.392ZM67.096 14.936C67.272 14.568 67.472 14.104 67.696 13.544C67.936 12.984 68.168 12.392 68.392 11.768C68.632 11.144 68.856 10.512 69.064 9.872C69.288 9.232 69.488 8.656 69.664 8.144H72.712C72.408 8.96 72.104 9.752 71.8 10.52C71.496 11.288 71.176 12.048 70.84 12.8C70.504 13.552 70.144 14.304 69.76 15.056C69.376 15.792 68.96 16.552 68.512 17.336V23H65.536V17.36C64.656 15.808 63.88 14.296 63.208 12.824C62.552 11.336 61.92 9.776 61.312 8.144H64.48C64.848 9.296 65.256 10.472 65.704 11.672C66.152 12.856 66.616 13.944 67.096 14.936Z" fill="black"/>
<path d="M4.296 32.468C4.872 32.468 5.368 32.544 5.784 32.696C6.2 32.848 6.592 33.076 6.96 33.38L6 34.544C5.496 34.136 4.944 33.932 4.344 33.932C3.776 33.932 3.316 34.172 2.964 34.652C2.62 35.132 2.448 35.856 2.448 36.824C2.448 37.792 2.62 38.512 2.964 38.984C3.308 39.448 3.78 39.68 4.38 39.68C4.748 39.68 5.064 39.616 5.328 39.488C5.592 39.36 5.876 39.176 6.18 38.936L7.068 40.076C6.332 40.828 5.4 41.204 4.272 41.204C3.512 41.204 2.84 41.036 2.256 40.7C1.68 40.364 1.228 39.868 0.9 39.212C0.572 38.548 0.408 37.752 0.408 36.824C0.408 35.92 0.576 35.14 0.912 34.484C1.248 33.828 1.712 33.328 2.304 32.984C2.896 32.64 3.56 32.468 4.296 32.468ZM10.7953 34.412C11.7633 34.412 12.5193 34.72 13.0633 35.336C13.6153 35.944 13.8913 36.764 13.8913 37.796C13.8913 38.868 13.6193 39.704 13.0753 40.304C12.5313 40.904 11.7713 41.204 10.7953 41.204C9.81931 41.204 9.05931 40.908 8.51531 40.316C7.97131 39.716 7.69931 38.88 7.69931 37.808C7.69931 37.128 7.81931 36.536 8.05931 36.032C8.30731 35.52 8.66331 35.124 9.12731 34.844C9.59931 34.556 10.1553 34.412 10.7953 34.412ZM10.7953 35.816C10.4033 35.816 10.1153 35.976 9.93131 36.296C9.74731 36.608 9.65531 37.112 9.65531 37.808C9.65531 38.512 9.74731 39.024 9.93131 39.344C10.1153 39.656 10.4033 39.812 10.7953 39.812C11.1873 39.812 11.4753 39.652 11.6593 39.332C11.8433 39.012 11.9353 38.5 11.9353 37.796C11.9353 37.108 11.8433 36.608 11.6593 36.296C11.4753 35.976 11.1873 35.816 10.7953 35.816ZM20.7506 32.096V41H19.0706L18.9746 40.304C18.7826 40.576 18.5386 40.796 18.2426 40.964C17.9466 41.124 17.6026 41.204 17.2106 41.204C16.4426 41.204 15.8586 40.9 15.4586 40.292C15.0666 39.684 14.8706 38.852 14.8706 37.796C14.8706 37.14 14.9746 36.556 15.1826 36.044C15.3906 35.532 15.6866 35.132 16.0706 34.844C16.4546 34.556 16.9026 34.412 17.4146 34.412C17.9906 34.412 18.4706 34.612 18.8546 35.012V31.892L20.7506 32.096ZM17.9186 35.804C17.5746 35.804 17.3066 35.968 17.1146 36.296C16.9226 36.616 16.8266 37.12 16.8266 37.808C16.8266 38.544 16.9106 39.064 17.0786 39.368C17.2546 39.664 17.4986 39.812 17.8106 39.812C18.2106 39.812 18.5586 39.568 18.8546 39.08V36.332C18.7186 36.156 18.5746 36.024 18.4226 35.936C18.2786 35.848 18.1106 35.804 17.9186 35.804ZM24.0699 38.372C24.1899 39.34 24.7019 39.824 25.6059 39.824C26.1499 39.824 26.6939 39.648 27.2379 39.296L27.9939 40.328C27.6819 40.6 27.3099 40.816 26.8779 40.976C26.4459 41.128 25.9699 41.204 25.4499 41.204C24.7379 41.204 24.1339 41.064 23.6379 40.784C23.1419 40.496 22.7659 40.1 22.5099 39.596C22.2619 39.084 22.1379 38.492 22.1379 37.82C22.1379 37.18 22.2579 36.604 22.4979 36.092C22.7459 35.572 23.1019 35.164 23.5659 34.868C24.0379 34.564 24.5979 34.412 25.2459 34.412C25.8539 34.412 26.3819 34.544 26.8299 34.808C27.2779 35.064 27.6219 35.44 27.8619 35.936C28.1099 36.424 28.2339 37.008 28.2339 37.688C28.2339 37.952 28.2219 38.18 28.1979 38.372H24.0699ZM25.2459 35.684C24.9019 35.684 24.6259 35.812 24.4179 36.068C24.2099 36.316 24.0859 36.7 24.0459 37.22H26.3859C26.3699 36.196 25.9899 35.684 25.2459 35.684ZM38.7126 35.276C38.9126 35.004 39.1526 34.792 39.4326 34.64C39.7206 34.488 40.0246 34.412 40.3446 34.412C41.1366 34.412 41.7246 34.708 42.1086 35.3C42.5006 35.892 42.6966 36.724 42.6966 37.796C42.6966 38.46 42.5966 39.048 42.3966 39.56C42.1966 40.072 41.9046 40.476 41.5206 40.772C41.1366 41.06 40.6766 41.204 40.1406 41.204C39.8206 41.204 39.5246 41.136 39.2526 41C38.9806 40.864 38.7526 40.672 38.5686 40.424L38.4966 41H36.8166V32.096L38.7126 31.892V35.276ZM39.6486 39.824C40.3766 39.824 40.7406 39.156 40.7406 37.82C40.7406 37.076 40.6566 36.556 40.4886 36.26C40.3206 35.964 40.0726 35.816 39.7446 35.816C39.3526 35.816 39.0086 36.064 38.7126 36.56V39.248C38.9606 39.632 39.2726 39.824 39.6486 39.824ZM47.9119 41C47.6239 41.856 47.1959 42.5 46.6279 42.932C46.0599 43.372 45.2999 43.62 44.3479 43.676L44.1319 42.332C44.7399 42.252 45.1879 42.116 45.4759 41.924C45.7719 41.732 46.0079 41.424 46.1839 41H45.5239L43.5079 34.628H45.5119L46.7479 39.788L48.0919 34.628H50.0359L47.9119 41ZM62.1465 41H60.1785V37.892L57.4665 32.684H59.6265L61.1985 36.26L62.7825 32.684H64.8585L62.1465 37.88V41ZM68.3578 34.412C69.3258 34.412 70.0818 34.72 70.6258 35.336C71.1778 35.944 71.4538 36.764 71.4538 37.796C71.4538 38.868 71.1818 39.704 70.6378 40.304C70.0938 40.904 69.3338 41.204 68.3578 41.204C67.3818 41.204 66.6218 40.908 66.0778 40.316C65.5338 39.716 65.2618 38.88 65.2618 37.808C65.2618 37.128 65.3818 36.536 65.6218 36.032C65.8698 35.52 66.2258 35.124 66.6898 34.844C67.1618 34.556 67.7178 34.412 68.3578 34.412ZM68.3578 35.816C67.9658 35.816 67.6778 35.976 67.4938 36.296C67.3098 36.608 67.2178 37.112 67.2178 37.808C67.2178 38.512 67.3098 39.024 67.4938 39.344C67.6778 39.656 67.9658 39.812 68.3578 39.812C68.7498 39.812 69.0378 39.652 69.2218 39.332C69.4058 39.012 69.4978 38.5 69.4978 37.796C69.4978 37.108 69.4058 36.608 69.2218 36.296C69.0378 35.976 68.7498 35.816 68.3578 35.816ZM74.6891 35.264C75.2251 34.696 75.8491 34.412 76.5611 34.412C77.1211 34.412 77.5531 34.58 77.8571 34.916C78.1611 35.244 78.3131 35.712 78.3131 36.32V41H76.4171V36.848C76.4171 36.464 76.3731 36.196 76.2851 36.044C76.1971 35.892 76.0371 35.816 75.8051 35.816C75.6131 35.816 75.4251 35.884 75.2411 36.02C75.0651 36.148 74.8811 36.34 74.6891 36.596V41H72.7931V32.096L74.6891 31.904V35.264ZM85.3524 39.164C85.3524 39.396 85.3844 39.568 85.4484 39.68C85.5124 39.792 85.6204 39.876 85.7724 39.932L85.3764 41.18C84.9924 41.14 84.6724 41.056 84.4164 40.928C84.1604 40.792 83.9604 40.596 83.8164 40.34C83.5764 40.62 83.2724 40.836 82.9044 40.988C82.5364 41.132 82.1444 41.204 81.7284 41.204C81.0724 41.204 80.5484 41.02 80.1564 40.652C79.7644 40.276 79.5684 39.792 79.5684 39.2C79.5684 38.512 79.8404 37.98 80.3844 37.604C80.9284 37.22 81.6924 37.028 82.6764 37.028H83.5284V36.8C83.5284 36.144 83.1084 35.816 82.2684 35.816C82.0524 35.816 81.7804 35.848 81.4524 35.912C81.1324 35.968 80.8204 36.048 80.5164 36.152L80.0844 34.892C80.4924 34.74 80.9164 34.624 81.3564 34.544C81.8044 34.456 82.2084 34.412 82.5684 34.412C84.4244 34.412 85.3524 35.164 85.3524 36.668V39.164ZM82.3764 39.848C82.5924 39.848 82.8084 39.788 83.0244 39.668C83.2484 39.54 83.4164 39.368 83.5284 39.152V38.108H83.0604C82.0364 38.108 81.5244 38.428 81.5244 39.068C81.5244 39.316 81.5964 39.508 81.7404 39.644C81.8924 39.78 82.1044 39.848 82.3764 39.848ZM87.1838 34.628H88.8398L88.9718 35.36C89.2598 35.04 89.5598 34.804 89.8717 34.652C90.1918 34.492 90.5518 34.412 90.9518 34.412C91.5038 34.412 91.9318 34.58 92.2358 34.916C92.5478 35.252 92.7038 35.72 92.7038 36.32V41H90.8078V36.872C90.8078 36.472 90.7638 36.196 90.6758 36.044C90.5878 35.892 90.4278 35.816 90.1958 35.816C90.0038 35.816 89.8158 35.88 89.6318 36.008C89.4558 36.128 89.2718 36.308 89.0798 36.548V41H87.1838V34.628ZM96.0231 38.372C96.1431 39.34 96.6551 39.824 97.5591 39.824C98.1031 39.824 98.6471 39.648 99.1911 39.296L99.9471 40.328C99.6351 40.6 99.2631 40.816 98.8311 40.976C98.3991 41.128 97.9231 41.204 97.4031 41.204C96.6911 41.204 96.0871 41.064 95.5911 40.784C95.0951 40.496 94.7191 40.1 94.4631 39.596C94.2151 39.084 94.0911 38.492 94.0911 37.82C94.0911 37.18 94.2111 36.604 94.4511 36.092C94.6991 35.572 95.0551 35.164 95.5191 34.868C95.9911 34.564 96.5511 34.412 97.1991 34.412C97.8071 34.412 98.3351 34.544 98.7831 34.808C99.2311 35.064 99.5751 35.44 99.8151 35.936C100.063 36.424 100.187 37.008 100.187 37.688C100.187 37.952 100.175 38.18 100.151 38.372H96.0231ZM97.1991 35.684C96.8551 35.684 96.5791 35.812 96.3711 36.068C96.1631 36.316 96.0391 36.7 95.9991 37.22H98.3391C98.3231 36.196 97.9431 35.684 97.1991 35.684ZM104.13 39.848C104.458 39.848 104.714 39.8 104.898 39.704C105.09 39.6 105.186 39.448 105.186 39.248C105.186 39.104 105.146 38.988 105.066 38.9C104.994 38.812 104.854 38.728 104.646 38.648C104.438 38.56 104.114 38.456 103.674 38.336C103.034 38.168 102.546 37.936 102.21 37.64C101.874 37.336 101.706 36.92 101.706 36.392C101.706 35.808 101.946 35.332 102.426 34.964C102.914 34.596 103.594 34.412 104.466 34.412C105.474 34.412 106.334 34.672 107.046 35.192L106.29 36.308C105.706 35.948 105.118 35.768 104.526 35.768C104.214 35.768 103.982 35.808 103.83 35.888C103.686 35.968 103.614 36.092 103.614 36.26C103.614 36.372 103.65 36.468 103.722 36.548C103.802 36.62 103.946 36.696 104.154 36.776C104.37 36.856 104.69 36.956 105.114 37.076C105.57 37.204 105.942 37.344 106.23 37.496C106.526 37.648 106.754 37.852 106.914 38.108C107.074 38.364 107.154 38.692 107.154 39.092C107.154 39.54 107.018 39.924 106.746 40.244C106.474 40.564 106.11 40.804 105.654 40.964C105.198 41.124 104.694 41.204 104.142 41.204C103.55 41.204 103.014 41.12 102.534 40.952C102.054 40.784 101.646 40.548 101.31 40.244L102.258 39.176C102.834 39.624 103.458 39.848 104.13 39.848Z" fill="black"/>
</svg>
